<svg xmlns="http://www.w3.org/2000/svg" width="131" height="32.134" viewBox="0 0 131 32.134"><path d="M10.523-39.107V-49.455c0-1.536.485-3.112,2.546-3.112V-53.82H3.45v1.253C5.511-52.567,6-50.991,6-49.455v22.8c0,1.536-.485,3.112-2.546,3.112v1.253h9.62v-1.253c-2.061,0-2.546-1.576-2.546-3.112V-38.1H23.7v11.439c0,1.536-.485,3.112-2.546,3.112v1.253h9.62v-1.253c-2.061,0-2.546-1.576-2.546-3.112v-22.8c0-1.536.485-3.112,2.546-3.112V-53.82h-9.62v1.253c2.061,0,2.546,1.576,2.546,3.112v10.347ZM34.007-32.4c0,6.184,4,10.711,9.458,10.711a9.048,9.048,0,0,0,8.488-5.82l-.768-.889A6.739,6.739,0,0,1,44.84-23.95c-2.506,0-6.467-1.132-6.467-8.448H52.924c0-6.184-4-10.711-9.458-10.711S34.007-38.582,34.007-32.4Zm4.365-1.01c.162-6.508,1.9-8.69,5.093-8.69s4.931,2.183,5.093,8.69Zm24.05,7.356V-53.82l-6.386,1.536v1.01c1.172,0,2.344.162,2.344,2.264v22.958A2.6,2.6,0,0,1,55.955-23.3v1.01h8.892V-23.3A2.6,2.6,0,0,1,62.422-26.052ZM68.081-32.4c0,6.184,4,10.711,9.458,10.711a9.048,9.048,0,0,0,8.488-5.82l-.768-.889a6.739,6.739,0,0,1-6.346,4.446c-2.506,0-6.467-1.132-6.467-8.448H87c0-6.184-4-10.711-9.458-10.711S68.081-38.582,68.081-32.4Zm4.365-1.01c.162-6.508,1.9-8.69,5.093-8.69s4.931,2.183,5.093,8.69Zm55.617,9.054v2.061l6.386-1.01v-1.01c-1.172,0-2.344-.162-2.344-2.264v-7.761c0-5.82-4.244-8.771-9.014-8.771-7.316,0-10.024,4.77-14.147,7.639v-1.5c0-3.557-2.264-6.144-6.023-6.144-1.7,0-5.74.808-5.74,5.133,0,3.314,2.021,5.578,5.335,5.578,9.539,0,11.075-9.7,20.169-9.7,2.425,0,5.376,1.334,5.376,5.74v3.153a8.4,8.4,0,0,0-5.7-2.061c-5.214,0-8.569,3.314-8.569,6.993,0,3.638,3.193,6.588,8.205,6.588A7.21,7.21,0,0,0,128.064-24.354ZM90.029-22.293h8.892V-23.3A2.6,2.6,0,0,1,96.5-26.052V-42.5L90.11-40.967v1.01c1.172,0,2.344.162,2.344,2.264v11.641A2.6,2.6,0,0,1,90.029-23.3Zm8.165-15.683a3.3,3.3,0,0,1,3.4-3.638c3.031,0,3.314,3.234,3.314,4.648v3.314a11.084,11.084,0,0,1-2.385.243C99.2-33.408,98.194-36.116,98.194-37.975Zm4.284,15.683h8.892V-23.3a2.6,2.6,0,0,1-2.425-2.749V-33.61a11.622,11.622,0,0,1-4.042,1.617v5.942a2.6,2.6,0,0,1-2.425,2.749Zm15.683-5.982c0-3.355,1.657-5.982,5.052-5.982,2.749,0,4.85,2.223,4.85,3.678v3.921c0,1.253-2.466,3.921-5.214,3.921C119.818-22.737,118.161-24.96,118.161-28.275Z" transform="translate(-3.45 53.82)"/></svg>