<svg xmlns="http://www.w3.org/2000/svg" width="18.305" height="18.301" viewBox="0 0 18.305 18.301"><path d="M9.149,6.7a4.692,4.692,0,1,0,4.692,4.692A4.685,4.685,0,0,0,9.149,6.7Zm0,7.743a3.05,3.05,0,1,1,3.05-3.05A3.056,3.056,0,0,1,9.149,14.439ZM15.128,6.5A1.094,1.094,0,1,1,14.033,5.41,1.092,1.092,0,0,1,15.128,6.5Zm3.108,1.111A5.416,5.416,0,0,0,16.757,3.78,5.452,5.452,0,0,0,12.922,2.3c-1.511-.086-6.04-.086-7.551,0A5.444,5.444,0,0,0,1.537,3.776,5.434,5.434,0,0,0,.059,7.611c-.086,1.511-.086,6.04,0,7.551A5.416,5.416,0,0,0,1.537,19a5.459,5.459,0,0,0,3.835,1.478c1.511.086,6.04.086,7.551,0A5.416,5.416,0,0,0,16.757,19a5.452,5.452,0,0,0,1.478-3.835c.086-1.511.086-6.036,0-7.547Zm-1.952,9.168a3.088,3.088,0,0,1-1.74,1.74c-1.2.478-4.063.368-5.394.368S4.955,19,3.755,18.522a3.088,3.088,0,0,1-1.74-1.74c-.478-1.2-.368-4.063-.368-5.394s-.106-4.194.368-5.394a3.088,3.088,0,0,1,1.74-1.74c1.2-.478,4.063-.368,5.394-.368s4.194-.106,5.394.368a3.088,3.088,0,0,1,1.74,1.74c.478,1.2.368,4.063.368,5.394S16.761,15.582,16.283,16.783Z" transform="translate(0.005 -2.238)"/></svg>