<svg xmlns="http://www.w3.org/2000/svg" width="14.703" height="17.683" viewBox="0 0 14.703 17.683"><path d="M62.953,14.814,61.94,3.764a.482.482,0,0,0-.485-.431H59.372a3.5,3.5,0,0,0-6.988,0H50.3a.479.479,0,0,0-.485.431L48.8,14.814c0,.014,0,.028,0,.042a2.492,2.492,0,0,0,2.655,2.281H60.3a2.492,2.492,0,0,0,2.655-2.281A.165.165,0,0,0,62.953,14.814ZM55.878.946A2.484,2.484,0,0,1,58.4,3.333H53.361A2.484,2.484,0,0,1,55.878.946ZM60.3,16.191H51.455a1.545,1.545,0,0,1-1.678-1.314l.969-10.594h1.635V5.719a.489.489,0,0,0,.977,0V4.283H58.4V5.719a.489.489,0,0,0,.977,0V4.283h1.635l.973,10.594A1.547,1.547,0,0,1,60.3,16.191Z" transform="translate(-48.527 0.273)" fill="#fff"/><path d="M60.325,17.433H51.478a2.764,2.764,0,0,1-2.928-2.555.429.429,0,0,1,0-.053v-.014l1.013-11.05a.749.749,0,0,1,.757-.679h1.825a3.779,3.779,0,0,1,7.505,0h1.825a.759.759,0,0,1,.757.68L63.247,14.8a.456.456,0,0,1,.006.081A2.764,2.764,0,0,1,60.325,17.433ZM49.1,14.889a2.224,2.224,0,0,0,2.382,2h8.847a2.223,2.223,0,0,0,2.382-2v0l0-.022L61.692,3.812a.209.209,0,0,0-.213-.183H59.127l0-.269a3.225,3.225,0,0,0-6.442,0l0,.269H50.324a.206.206,0,0,0-.213.182L49.1,14.854C49.1,14.866,49.1,14.878,49.1,14.889Zm11.229,1.6H51.478a1.821,1.821,0,0,1-1.951-1.582V14.89L50.52,4.033h2.157v1.71a.216.216,0,0,0,.43,0V4.033h5.585v1.71a.216.216,0,0,0,.43,0V4.033H61.28l1,10.858v.015A1.821,1.821,0,0,1,60.325,16.487ZM50.073,14.909a1.289,1.289,0,0,0,1.4,1.032h8.847a1.289,1.289,0,0,0,1.4-1.032l-.949-10.33H59.669V5.743a.762.762,0,0,1-1.523,0V4.579H53.654V5.743a.762.762,0,0,1-1.523,0V4.579H51.018ZM58.7,3.629H53.1l.006-.279a2.794,2.794,0,0,1,5.581,0Zm-5.016-.546h4.438a2.258,2.258,0,0,0-4.438,0Z" transform="translate(-48.55 0.25)" fill="#fff"/></svg>