<svg xmlns="http://www.w3.org/2000/svg" width="38" height="38" viewBox="0 0 38 38"><g transform="translate(-3.375 -3.375)"><path d="M24.2,15.755h-5.63v-5.63H15.755v5.63h-5.63v2.815h5.63V24.2h2.815v-5.63H24.2Z" transform="translate(1.694 1.694)" fill="#fff"/><path d="M30.749,28.708a15.3,15.3,0,0,0,3.589-9.852A15.481,15.481,0,1,0,18.856,34.338a15.3,15.3,0,0,0,9.852-3.589L39.391,41.375l1.984-1.984ZM18.856,31.523A12.667,12.667,0,1,1,31.523,18.856,12.667,12.667,0,0,1,18.856,31.523Z" transform="translate(0)" fill="#fff"/></g></svg>