<svg xmlns="http://www.w3.org/2000/svg" width="16.145" height="17.875" viewBox="0 0 16.145 17.875"><g transform="translate(-2.25 -1.125)"><path d="M17.242,10.153H3.4V20.532a1.153,1.153,0,0,0,1.153,1.153H16.089a1.153,1.153,0,0,0,1.153-1.153ZM2.25,9V20.532a2.306,2.306,0,0,0,2.306,2.306H16.089A2.306,2.306,0,0,0,18.4,20.532V9Z" transform="translate(0 -3.839)" fill-rule="evenodd"/><path d="M14.161,2.278a2.883,2.883,0,0,0-2.883,2.883H10.125a4.036,4.036,0,0,1,8.073,0H17.044A2.883,2.883,0,0,0,14.161,2.278Z" transform="translate(-3.839)"/></g></svg>