<svg xmlns="http://www.w3.org/2000/svg" width="11.088" height="19.342" viewBox="0 0 11.088 19.342"><path d="M17.837,2.5h2.751a.5.5,0,0,1,.5.5V6.668a.5.5,0,0,1-.5.5H17.837a.418.418,0,0,0-.417.417V9.837h3.168a.5.5,0,0,1,.485.621l-.917,3.668a.5.5,0,0,1-.485.379H17.42v6.837a.5.5,0,0,1-.5.5H13.251a.5.5,0,0,1-.5-.5V14.505H10.5a.5.5,0,0,1-.5-.5V10.337a.5.5,0,0,1,.5-.5h2.251V7.585A5.091,5.091,0,0,1,17.837,2.5Zm2.251,1H17.837a4.09,4.09,0,0,0-4.085,4.085v2.751a.5.5,0,0,1-.5.5H11v2.668h2.251a.5.5,0,0,1,.5.5v6.837H16.42V14.005a.5.5,0,0,1,.5-.5h2.361l.667-2.668H16.92a.5.5,0,0,1-.5-.5V7.585a1.419,1.419,0,0,1,1.417-1.417h2.251Z" transform="translate(-10 -2.5)"/></svg>