<svg xmlns="http://www.w3.org/2000/svg" width="101.862" height="49.124" viewBox="0 0 101.862 49.124"><path d="M173.557-.559V4.168L188.2,1.851V-.466c-2.688,0-5.376-.371-5.376-5.19v-17.8c0-13.347-9.732-20.113-20.669-20.113-16.776,0-22.986,10.937-32.44,17.518v-3.429c0-8.156-5.19-14.088-13.81-14.088-3.893,0-13.161,1.854-13.161,11.771,0,7.6,4.634,12.791,12.235,12.791,21.874,0,25.4-22.245,46.25-22.245,5.561,0,12.327,3.059,12.327,13.161v7.229a19.267,19.267,0,0,0-13.069-4.727c-11.956,0-19.649,7.6-19.649,16.035,0,8.342,7.322,15.108,18.815,15.108C166.791,5.558,170.5,2.963,173.557-.559ZM86.339,4.168H106.73V1.851c-2.688,0-5.561-2.41-5.561-6.3V-42.175L86.525-38.653v2.317c2.688,0,5.376.371,5.376,5.19V-4.452c0,3.893-2.873,6.3-5.561,6.3Zm18.723-35.962c0-6.581,4.727-8.342,7.786-8.342,6.951,0,7.6,7.415,7.6,10.659v7.6a25.418,25.418,0,0,1-5.468.556C107.379-21.321,105.062-27.531,105.062-31.794Zm9.825,35.962h20.391V1.851c-2.688,0-5.561-2.41-5.561-6.3V-21.784a26.651,26.651,0,0,1-9.269,3.707V-4.452c0,3.893-2.873,6.3-5.561,6.3ZM150.849-9.55c0-7.693,3.8-13.718,11.586-13.718,6.3,0,11.122,5.1,11.122,8.434v8.991c0,2.873-5.654,8.991-11.956,8.991C154.649,3.148,150.849-1.949,150.849-9.55Z" transform="translate(-86.339 43.565)"/></svg>