<svg xmlns="http://www.w3.org/2000/svg" width="125.418" height="30.764" viewBox="0 0 125.418 30.764"><path d="M10.222-39.734v-9.906c0-1.47.464-2.98,2.438-2.98v-1.2H3.45v1.2c1.974,0,2.438,1.509,2.438,2.98v21.825c0,1.47-.464,2.98-2.438,2.98v1.2h9.21v-1.2c-1.974,0-2.438-1.509-2.438-2.98V-38.767H22.837v10.951c0,1.47-.464,2.98-2.438,2.98v1.2h9.21v-1.2c-1.974,0-2.438-1.509-2.438-2.98V-49.641c0-1.47.464-2.98,2.438-2.98v-1.2H20.4v1.2c1.974,0,2.438,1.509,2.438,2.98v9.906ZM32.705-33.31c0,5.921,3.831,10.255,9.055,10.255a8.663,8.663,0,0,0,8.126-5.572l-.735-.851a6.452,6.452,0,0,1-6.075,4.257c-2.4,0-6.192-1.084-6.192-8.088H50.815c0-5.921-3.831-10.255-9.055-10.255S32.705-39.231,32.705-33.31Zm4.179-.967c.155-6.23,1.819-8.32,4.876-8.32s4.721,2.09,4.876,8.32Zm23.025,7.043V-53.82L53.8-52.35v.967c1.122,0,2.244.155,2.244,2.167v21.98A2.485,2.485,0,0,1,53.718-24.6v.967h8.513V-24.6A2.485,2.485,0,0,1,59.909-27.235Zm5.418-6.075c0,5.921,3.831,10.255,9.055,10.255a8.663,8.663,0,0,0,8.126-5.572l-.735-.851A6.452,6.452,0,0,1,75.7-25.223c-2.4,0-6.192-1.084-6.192-8.088H83.437c0-5.921-3.831-10.255-9.055-10.255S65.327-39.231,65.327-33.31Zm4.179-.967c.155-6.23,1.819-8.32,4.876-8.32s4.721,2.09,4.876,8.32Zm53.247,8.668v1.974l6.114-.967v-.967c-1.122,0-2.244-.155-2.244-2.167v-7.43c0-5.572-4.063-8.4-8.629-8.4-7,0-9.6,4.566-13.544,7.314v-1.432c0-3.405-2.167-5.882-5.766-5.882-1.625,0-5.495.774-5.495,4.915,0,3.173,1.935,5.34,5.108,5.34,9.133,0,10.6-9.287,19.31-9.287,2.322,0,5.147,1.277,5.147,5.5v3.018a8.044,8.044,0,0,0-5.456-1.974c-4.992,0-8.2,3.173-8.2,6.695,0,3.483,3.057,6.308,7.856,6.308A6.9,6.9,0,0,0,122.753-25.61ZM86.339-23.636h8.513V-24.6a2.485,2.485,0,0,1-2.322-2.631v-15.75l-6.114,1.47v.967c1.122,0,2.244.155,2.244,2.167v11.145A2.485,2.485,0,0,1,86.339-24.6Zm7.817-15.015a3.163,3.163,0,0,1,3.251-3.483c2.9,0,3.173,3.1,3.173,4.45v3.173a10.612,10.612,0,0,1-2.283.232C95.124-34.278,94.156-36.871,94.156-38.651Zm4.1,15.015h8.513V-24.6a2.485,2.485,0,0,1-2.322-2.631v-7.236a11.127,11.127,0,0,1-3.87,1.548v5.688A2.485,2.485,0,0,1,98.258-24.6Zm15.015-5.727c0-3.212,1.587-5.727,4.837-5.727,2.631,0,4.644,2.128,4.644,3.521v3.754c0,1.2-2.361,3.754-4.992,3.754C114.859-24.062,113.273-26.19,113.273-29.363Z" transform="translate(-3.45 53.82)"/></svg>