<svg xmlns="http://www.w3.org/2000/svg" width="13.5" height="13.5" viewBox="0 0 13.5 13.5"><path d="M4.52,11.1H4.35a1.35,1.35,0,1,1,0-2.7h.17A5.368,5.368,0,0,1,5.1,7.007l-.122-.121a1.35,1.35,0,0,1,1.91-1.909l.12.121A5.368,5.368,0,0,1,8.4,4.52V4.35a1.35,1.35,0,1,1,2.7,0v.17a5.368,5.368,0,0,1,1.393.578l.121-.122a1.35,1.35,0,1,1,1.909,1.91l-.121.12A5.343,5.343,0,0,1,14.98,8.4h.17a1.35,1.35,0,1,1,0,2.7h-.17a5.368,5.368,0,0,1-.578,1.393l.122.121a1.35,1.35,0,1,1-1.91,1.909l-.12-.121a5.368,5.368,0,0,1-1.393.578v.17a1.35,1.35,0,1,1-2.7,0v-.17A5.368,5.368,0,0,1,7.007,14.4l-.121.122a1.35,1.35,0,0,1-1.909-1.91l.121-.12A5.368,5.368,0,0,1,4.52,11.1Zm3.2-2.7L6.375,9.75l2.7,2.7,4.05-4.05-1.35-1.35-2.7,2.7Z" transform="translate(-3 -3)" fill-rule="evenodd"/></svg>