<svg xmlns="http://www.w3.org/2000/svg" width="15.092" height="15.092" viewBox="0 0 15.092 15.092"><g transform="translate(9493.475 5471)"><path d="M9.791,3a6.791,6.791,0,1,1-4.8,1.989A6.747,6.747,0,0,1,9.791,3Zm0,12.073A5.282,5.282,0,1,0,4.509,9.791,5.288,5.288,0,0,0,9.791,15.073Z" transform="translate(-9496.475 -5474)"/><path d="M27.512,28.266a.752.752,0,0,1-.534-.221L23.7,24.763A.755.755,0,1,1,24.763,23.7l3.282,3.282a.755.755,0,0,1-.534,1.288Z" transform="translate(-9506.649 -5484.175)"/></g></svg>