<svg xmlns="http://www.w3.org/2000/svg" width="15.17" height="18.3" viewBox="0 0 15.17 18.3"><g transform="translate(0.15 0.15)"><path d="M91.178,8.986A3.862,3.862,0,0,0,94.109,7.67a4.538,4.538,0,0,0,1.215-3.177,4.538,4.538,0,0,0-1.215-3.177,3.922,3.922,0,0,0-5.863,0,4.538,4.538,0,0,0-1.215,3.177A4.538,4.538,0,0,0,88.246,7.67,3.864,3.864,0,0,0,91.178,8.986Zm-2.218-6.9a2.968,2.968,0,0,1,4.436,0,3.39,3.39,0,0,1,.919,2.4A3.39,3.39,0,0,1,93.4,6.9a2.967,2.967,0,0,1-4.436,0,3.389,3.389,0,0,1-.919-2.4,3.39,3.39,0,0,1,.919-2.4Zm0,0" transform="translate(-83.861 0)"/><path d="M91.178,9.136a4.008,4.008,0,0,1-3.042-1.365,4.684,4.684,0,0,1-1.254-3.279,4.683,4.683,0,0,1,1.254-3.278,4.072,4.072,0,0,1,6.083,0,4.684,4.684,0,0,1,1.254,3.279,4.684,4.684,0,0,1-1.254,3.279A4.007,4.007,0,0,1,91.178,9.136Zm0-8.986a3.718,3.718,0,0,0-2.821,1.268,4.392,4.392,0,0,0-1.175,3.075,4.393,4.393,0,0,0,1.175,3.075,3.772,3.772,0,0,0,5.642,0,4.393,4.393,0,0,0,1.175-3.075A4.393,4.393,0,0,0,94,1.418,3.718,3.718,0,0,0,91.178.15Zm0,7.893A3.029,3.029,0,0,1,88.85,7a3.533,3.533,0,0,1-.959-2.506,3.533,3.533,0,0,1,.959-2.505,3.118,3.118,0,0,1,4.657,0,3.534,3.534,0,0,1,.959,2.506A3.534,3.534,0,0,1,93.506,7,3.028,3.028,0,0,1,91.178,8.043Zm0-6.8a2.743,2.743,0,0,0-2.108.948,3.246,3.246,0,0,0-.88,2.3,3.245,3.245,0,0,0,.88,2.3,2.818,2.818,0,0,0,4.216,0,3.246,3.246,0,0,0,.879-2.3,3.246,3.246,0,0,0-.879-2.3A2.743,2.743,0,0,0,91.178,1.243Z" transform="translate(-83.861 0)"/><path d="M14.833,252.65a11.593,11.593,0,0,0-.144-1.179,9.649,9.649,0,0,0-.277-1.185,6,6,0,0,0-.466-1.105,4.15,4.15,0,0,0-.7-.957,3.079,3.079,0,0,0-1.008-.663,3.347,3.347,0,0,0-1.287-.244,1.275,1.275,0,0,0-.7.31c-.209.143-.454.308-.727.49a4.073,4.073,0,0,1-.94.434,3.5,3.5,0,0,1-2.3,0,4.063,4.063,0,0,1-.94-.434c-.27-.181-.515-.346-.727-.491a1.273,1.273,0,0,0-.7-.31,3.343,3.343,0,0,0-1.287.244,3.077,3.077,0,0,0-1.008.663,4.151,4.151,0,0,0-.7.957,6.008,6.008,0,0,0-.465,1.105,9.672,9.672,0,0,0-.277,1.185,11.512,11.512,0,0,0-.144,1.179c-.024.356-.036.727-.036,1.1A3.175,3.175,0,0,0,.879,256.1a3.083,3.083,0,0,0,2.265.865h8.582a3.083,3.083,0,0,0,2.265-.865,3.174,3.174,0,0,0,.879-2.344c0-.376-.012-.747-.036-1.1ZM13.27,255.3a2.074,2.074,0,0,1-1.545.563H3.144A2.074,2.074,0,0,1,1.6,255.3a2.076,2.076,0,0,1-.555-1.552c0-.35.011-.695.033-1.026a10.384,10.384,0,0,1,.131-1.062,8.532,8.532,0,0,1,.244-1.045,4.892,4.892,0,0,1,.379-.9,3.078,3.078,0,0,1,.516-.708,2.042,2.042,0,0,1,.671-.437,2.309,2.309,0,0,1,.823-.166c.037.02.1.059.207.131.215.146.462.314.736.5a5.065,5.065,0,0,0,1.18.552,4.5,4.5,0,0,0,2.943,0,5.072,5.072,0,0,0,1.181-.553c.28-.187.521-.35.735-.5.106-.072.171-.111.207-.131a2.311,2.311,0,0,1,.823.166,2.045,2.045,0,0,1,.671.437,3.07,3.07,0,0,1,.516.708,4.874,4.874,0,0,1,.379.9,8.508,8.508,0,0,1,.244,1.045,10.472,10.472,0,0,1,.131,1.062h0c.022.33.033.675.033,1.026a2.075,2.075,0,0,1-.555,1.551Zm0,0" transform="translate(0 -238.96)"/><path d="M11.725,257.11H3.144A3.228,3.228,0,0,1,.773,256.2a3.32,3.32,0,0,1-.923-2.45c0-.378.012-.752.036-1.112a11.666,11.666,0,0,1,.146-1.195,9.823,9.823,0,0,1,.281-1.2,6.157,6.157,0,0,1,.477-1.133,4.3,4.3,0,0,1,.727-.992,3.226,3.226,0,0,1,1.057-.7,3.492,3.492,0,0,1,1.344-.256,1.385,1.385,0,0,1,.782.336c.209.143.453.307.726.49a3.916,3.916,0,0,0,.9.416,3.348,3.348,0,0,0,2.2,0,3.928,3.928,0,0,0,.905-.416c.273-.182.517-.347.725-.49a1.387,1.387,0,0,1,.782-.336,3.5,3.5,0,0,1,1.345.255,3.229,3.229,0,0,1,1.057.7,4.3,4.3,0,0,1,.727.992,6.145,6.145,0,0,1,.477,1.133,9.8,9.8,0,0,1,.281,1.2,11.745,11.745,0,0,1,.146,1.194c.024.358.036.732.036,1.112a3.318,3.318,0,0,1-.923,2.45A3.228,3.228,0,0,1,11.725,257.11Zm-7.806-9.644a3.194,3.194,0,0,0-1.23.233,2.928,2.928,0,0,0-.96.631,4,4,0,0,0-.676.923A5.857,5.857,0,0,0,.6,250.33,9.524,9.524,0,0,0,.328,251.5a11.367,11.367,0,0,0-.143,1.164c-.023.353-.035.72-.035,1.092a3.031,3.031,0,0,0,.835,2.237,2.939,2.939,0,0,0,2.159.821h8.582a2.939,2.939,0,0,0,2.159-.821,3.03,3.03,0,0,0,.835-2.237c0-.373-.012-.74-.036-1.092a11.444,11.444,0,0,0-.143-1.163,9.5,9.5,0,0,0-.273-1.167,5.844,5.844,0,0,0-.454-1.078,4,4,0,0,0-.676-.923,2.93,2.93,0,0,0-.96-.631,3.2,3.2,0,0,0-1.23-.232,1.171,1.171,0,0,0-.613.284c-.209.143-.454.308-.728.491a4.22,4.22,0,0,1-.976.451,3.647,3.647,0,0,1-2.4,0,4.207,4.207,0,0,1-.975-.451c-.274-.183-.519-.349-.729-.492A1.17,1.17,0,0,0,3.919,247.466Zm7.806,8.551H3.144a2.216,2.216,0,0,1-1.651-.607,2.217,2.217,0,0,1-.6-1.658c0-.354.011-.7.033-1.036a10.536,10.536,0,0,1,.132-1.077,8.679,8.679,0,0,1,.248-1.063,5.041,5.041,0,0,1,.39-.926,3.228,3.228,0,0,1,.541-.742,2.191,2.191,0,0,1,.72-.469,2.46,2.46,0,0,1,.876-.177h.041l.036.02c.058.032.132.079.219.138.222.152.469.318.735.5a4.916,4.916,0,0,0,1.145.535,4.366,4.366,0,0,0,2.847,0A4.926,4.926,0,0,0,10,248.913c.285-.191.525-.353.734-.5.088-.06.162-.107.219-.138l.036-.02h.041a2.462,2.462,0,0,1,.876.177,2.193,2.193,0,0,1,.719.469,3.219,3.219,0,0,1,.541.742,5.022,5.022,0,0,1,.391.926,8.657,8.657,0,0,1,.248,1.063,10.626,10.626,0,0,1,.132,1.077v.005c.022.33.033.677.033,1.031a2.086,2.086,0,0,1-2.25,2.265ZM3.8,248.562a2.14,2.14,0,0,0-.727.153,1.894,1.894,0,0,0-.622.4,2.929,2.929,0,0,0-.49.673,4.74,4.74,0,0,0-.367.871,8.38,8.38,0,0,0-.239,1.026,10.236,10.236,0,0,0-.129,1.046c-.022.327-.033.668-.033,1.016A1.934,1.934,0,0,0,1.7,255.2a1.932,1.932,0,0,0,1.439.52h8.582a1.789,1.789,0,0,0,1.95-1.965c0-.349-.011-.69-.033-1.016v-.005a10.343,10.343,0,0,0-.128-1.042,8.36,8.36,0,0,0-.239-1.026,4.723,4.723,0,0,0-.367-.871,2.922,2.922,0,0,0-.49-.673,1.9,1.9,0,0,0-.622-.4,2.143,2.143,0,0,0-.728-.153c-.036.022-.088.055-.161.1-.21.143-.451.306-.736.5a5.22,5.22,0,0,1-1.216.57,4.667,4.667,0,0,1-3.039,0,5.21,5.21,0,0,1-1.216-.569c-.266-.178-.514-.345-.737-.5C3.89,248.617,3.838,248.584,3.8,248.562Z" transform="translate(0 -238.96)"/></g></svg>